<svg width="199" height="74" viewBox="0 0 199 74" fill="none" xmlns="http://www.w3.org/2000/svg">
<g filter="url(#filter0_d_1_7)">
<path d="M19 9.5H180C188.008 9.5 194.5 15.9919 194.5 24V45C194.5 53.0081 188.008 59.5 180 59.5H19C10.9919 59.5 4.5 53.0081 4.5 45V24C4.5 15.9919 10.9919 9.5 19 9.5Z" fill="#EA4C89" stroke="white"/>
<path d="M30.418 38.8418L34.6074 26.7812H36.6484L31.3848 41H29.9297L30.418 38.8418ZM26.502 26.7812L30.6523 38.8418L31.1699 41H29.7148L24.4609 26.7812H26.502ZM40.252 30.4336V41H38.4355V30.4336H40.252ZM38.2988 27.6309C38.2988 27.3379 38.3867 27.0905 38.5625 26.8887C38.7448 26.6868 39.0117 26.5859 39.3633 26.5859C39.7083 26.5859 39.972 26.6868 40.1543 26.8887C40.3431 27.0905 40.4375 27.3379 40.4375 27.6309C40.4375 27.9108 40.3431 28.1517 40.1543 28.3535C39.972 28.5488 39.7083 28.6465 39.3633 28.6465C39.0117 28.6465 38.7448 28.5488 38.5625 28.3535C38.3867 28.1517 38.2988 27.9108 38.2988 27.6309ZM49.3047 38.1973C49.3047 37.9368 49.2461 37.696 49.1289 37.4746C49.0182 37.2467 48.7871 37.0417 48.4355 36.8594C48.0905 36.6706 47.5697 36.5078 46.873 36.3711C46.2871 36.2474 45.7565 36.1009 45.2812 35.9316C44.8125 35.7624 44.4121 35.5573 44.0801 35.3164C43.7546 35.0755 43.5039 34.7923 43.3281 34.4668C43.1523 34.1413 43.0645 33.7604 43.0645 33.3242C43.0645 32.9076 43.1556 32.5137 43.3379 32.1426C43.5267 31.7715 43.7904 31.4427 44.1289 31.1562C44.474 30.8698 44.8874 30.6452 45.3691 30.4824C45.8509 30.3197 46.388 30.2383 46.9805 30.2383C47.8268 30.2383 48.5495 30.388 49.1484 30.6875C49.7474 30.987 50.2064 31.3874 50.5254 31.8887C50.8444 32.3835 51.0039 32.9336 51.0039 33.5391H49.1973C49.1973 33.2461 49.1094 32.9629 48.9336 32.6895C48.7643 32.4095 48.5137 32.1784 48.1816 31.9961C47.8561 31.8138 47.4557 31.7227 46.9805 31.7227C46.4792 31.7227 46.0723 31.8008 45.7598 31.957C45.4538 32.1068 45.2292 32.2988 45.0859 32.5332C44.9492 32.7676 44.8809 33.015 44.8809 33.2754C44.8809 33.4707 44.9134 33.6465 44.9785 33.8027C45.0501 33.9525 45.1738 34.0924 45.3496 34.2227C45.5254 34.3464 45.7728 34.4635 46.0918 34.5742C46.4108 34.6849 46.8177 34.7956 47.3125 34.9062C48.1784 35.1016 48.8913 35.3359 49.4512 35.6094C50.0111 35.8828 50.4277 36.2181 50.7012 36.6152C50.9746 37.0124 51.1113 37.4941 51.1113 38.0605C51.1113 38.5228 51.0137 38.946 50.8184 39.3301C50.6296 39.7142 50.3529 40.0462 49.9883 40.3262C49.6302 40.5996 49.2005 40.8145 48.6992 40.9707C48.2044 41.1204 47.6478 41.1953 47.0293 41.1953C46.0983 41.1953 45.3105 41.0293 44.666 40.6973C44.0215 40.3652 43.5332 39.9355 43.2012 39.4082C42.8691 38.8809 42.7031 38.3242 42.7031 37.7383H44.5195C44.5456 38.2331 44.6888 38.627 44.9492 38.9199C45.2096 39.2064 45.5286 39.4115 45.9062 39.5352C46.2839 39.6523 46.6582 39.7109 47.0293 39.7109C47.5241 39.7109 47.9375 39.6458 48.2695 39.5156C48.6081 39.3854 48.8652 39.2064 49.041 38.9785C49.2168 38.7507 49.3047 38.4902 49.3047 38.1973ZM55.4473 30.4336V41H53.6309V30.4336H55.4473ZM53.4941 27.6309C53.4941 27.3379 53.582 27.0905 53.7578 26.8887C53.9401 26.6868 54.207 26.5859 54.5586 26.5859C54.9036 26.5859 55.1673 26.6868 55.3496 26.8887C55.5384 27.0905 55.6328 27.3379 55.6328 27.6309C55.6328 27.9108 55.5384 28.1517 55.3496 28.3535C55.1673 28.5488 54.9036 28.6465 54.5586 28.6465C54.207 28.6465 53.9401 28.5488 53.7578 28.3535C53.582 28.1517 53.4941 27.9108 53.4941 27.6309ZM62.7715 30.4336V31.8203H57.0586V30.4336H62.7715ZM58.9922 27.8652H60.7988V38.3828C60.7988 38.7409 60.8542 39.0111 60.9648 39.1934C61.0755 39.3757 61.2188 39.4961 61.3945 39.5547C61.5703 39.6133 61.7591 39.6426 61.9609 39.6426C62.1107 39.6426 62.2669 39.6296 62.4297 39.6035C62.599 39.571 62.7259 39.5449 62.8105 39.5254L62.8203 41C62.6771 41.0456 62.4883 41.0879 62.2539 41.127C62.026 41.1725 61.7493 41.1953 61.4238 41.1953C60.9811 41.1953 60.5742 41.1074 60.2031 40.9316C59.832 40.7559 59.5358 40.4629 59.3145 40.0527C59.0996 39.6361 58.9922 39.0762 58.9922 38.373V27.8652ZM71.6484 32.5332V41H69.832V30.4336H71.5508L71.6484 32.5332ZM71.2773 35.3164L70.4375 35.2871C70.444 34.5645 70.5384 33.8971 70.7207 33.2852C70.903 32.6667 71.1732 32.1296 71.5312 31.6738C71.8893 31.2181 72.3353 30.8665 72.8691 30.6191C73.403 30.3652 74.0215 30.2383 74.7246 30.2383C75.2194 30.2383 75.6751 30.3099 76.0918 30.4531C76.5085 30.5898 76.8698 30.8079 77.1758 31.1074C77.4818 31.4069 77.7194 31.791 77.8887 32.2598C78.0579 32.7285 78.1426 33.2949 78.1426 33.959V41H76.3359V34.0469C76.3359 33.4935 76.2415 33.0508 76.0527 32.7188C75.8704 32.3867 75.61 32.1458 75.2715 31.9961C74.9329 31.8398 74.5358 31.7617 74.0801 31.7617C73.5462 31.7617 73.1003 31.8561 72.7422 32.0449C72.3841 32.2337 72.0977 32.4941 71.8828 32.8262C71.668 33.1582 71.5117 33.5391 71.4141 33.9688C71.3229 34.3919 71.2773 34.8411 71.2773 35.3164ZM78.123 34.3203L76.9121 34.6914C76.9186 34.112 77.013 33.5553 77.1953 33.0215C77.3841 32.4876 77.6543 32.0124 78.0059 31.5957C78.3639 31.179 78.8034 30.8503 79.3242 30.6094C79.8451 30.362 80.4408 30.2383 81.1113 30.2383C81.6777 30.2383 82.179 30.3132 82.6152 30.4629C83.0579 30.6126 83.429 30.8438 83.7285 31.1562C84.0345 31.4622 84.2656 31.8561 84.4219 32.3379C84.5781 32.8197 84.6562 33.3926 84.6562 34.0566V41H82.8398V34.0371C82.8398 33.4447 82.7454 32.9857 82.5566 32.6602C82.3743 32.3281 82.1139 32.097 81.7754 31.9668C81.4434 31.8301 81.0462 31.7617 80.584 31.7617C80.1868 31.7617 79.8353 31.8301 79.5293 31.9668C79.2233 32.1035 78.9661 32.2923 78.7578 32.5332C78.5495 32.7676 78.39 33.0378 78.2793 33.3438C78.1751 33.6497 78.123 33.9753 78.123 34.3203ZM90.3594 39.9062L93.2988 30.4336H95.2324L90.9941 42.6309C90.8965 42.8913 90.7663 43.1712 90.6035 43.4707C90.4473 43.7767 90.2454 44.0664 89.998 44.3398C89.7507 44.6133 89.4512 44.8346 89.0996 45.0039C88.7546 45.1797 88.3411 45.2676 87.8594 45.2676C87.7161 45.2676 87.5339 45.248 87.3125 45.209C87.0911 45.1699 86.9349 45.1374 86.8438 45.1113L86.834 43.6465C86.8861 43.653 86.9674 43.6595 87.0781 43.666C87.1953 43.679 87.2767 43.6855 87.3223 43.6855C87.7324 43.6855 88.0807 43.6302 88.3672 43.5195C88.6536 43.4154 88.8945 43.2363 89.0898 42.9824C89.2917 42.735 89.4642 42.3932 89.6074 41.957L90.3594 39.9062ZM88.2012 30.4336L90.9453 38.6367L91.4141 40.541L90.1152 41.2051L86.2285 30.4336H88.2012ZM104.5 39.125L107.215 30.4336H108.406L108.172 32.1621L105.408 41H104.246L104.5 39.125ZM102.674 30.4336L104.988 39.2227L105.154 41H103.934L100.867 30.4336H102.674ZM111.004 39.1543L113.211 30.4336H115.008L111.941 41H110.73L111.004 39.1543ZM108.67 30.4336L111.326 38.9785L111.629 41H110.477L107.635 32.1426L107.4 30.4336H108.67ZM121.248 41.1953C120.512 41.1953 119.845 41.0716 119.246 40.8242C118.654 40.5703 118.143 40.2155 117.713 39.7598C117.29 39.304 116.964 38.7637 116.736 38.1387C116.508 37.5137 116.395 36.8301 116.395 36.0879V35.6777C116.395 34.8184 116.521 34.0534 116.775 33.3828C117.029 32.7057 117.374 32.1328 117.811 31.6641C118.247 31.1953 118.742 30.8405 119.295 30.5996C119.848 30.3587 120.421 30.2383 121.014 30.2383C121.769 30.2383 122.42 30.3685 122.967 30.6289C123.52 30.8893 123.973 31.2539 124.324 31.7227C124.676 32.1849 124.936 32.7318 125.105 33.3633C125.275 33.9883 125.359 34.6719 125.359 35.4141V36.2246H117.469V34.75H123.553V34.6133C123.527 34.1445 123.429 33.6888 123.26 33.2461C123.097 32.8034 122.837 32.4388 122.479 32.1523C122.12 31.8659 121.632 31.7227 121.014 31.7227C120.604 31.7227 120.226 31.8105 119.881 31.9863C119.536 32.1556 119.24 32.4095 118.992 32.748C118.745 33.0866 118.553 33.5 118.416 33.9883C118.279 34.4766 118.211 35.0397 118.211 35.6777V36.0879C118.211 36.5892 118.279 37.0612 118.416 37.5039C118.559 37.9401 118.764 38.3242 119.031 38.6562C119.305 38.9883 119.633 39.2487 120.018 39.4375C120.408 39.6263 120.851 39.7207 121.346 39.7207C121.984 39.7207 122.524 39.5905 122.967 39.3301C123.41 39.0697 123.797 38.7214 124.129 38.2852L125.223 39.1543C124.995 39.4993 124.705 39.8281 124.354 40.1406C124.002 40.4531 123.569 40.707 123.055 40.9023C122.547 41.0977 121.945 41.1953 121.248 41.1953ZM127.459 26H129.275V38.9492L129.119 41H127.459V26ZM136.414 35.6289V35.834C136.414 36.6022 136.323 37.3151 136.141 37.9727C135.958 38.6237 135.691 39.1901 135.34 39.6719C134.988 40.1536 134.559 40.528 134.051 40.7949C133.543 41.0618 132.96 41.1953 132.303 41.1953C131.632 41.1953 131.043 41.0814 130.535 40.8535C130.034 40.6191 129.611 40.2839 129.266 39.8477C128.921 39.4115 128.644 38.8841 128.436 38.2656C128.234 37.6471 128.094 36.9505 128.016 36.1758V35.2773C128.094 34.4961 128.234 33.7962 128.436 33.1777C128.644 32.5592 128.921 32.0319 129.266 31.5957C129.611 31.153 130.034 30.8177 130.535 30.5898C131.036 30.3555 131.619 30.2383 132.283 30.2383C132.947 30.2383 133.536 30.3685 134.051 30.6289C134.565 30.8828 134.995 31.2474 135.34 31.7227C135.691 32.1979 135.958 32.7676 136.141 33.4316C136.323 34.0892 136.414 34.8216 136.414 35.6289ZM134.598 35.834V35.6289C134.598 35.1016 134.549 34.6068 134.451 34.1445C134.354 33.6758 134.197 33.2656 133.982 32.9141C133.768 32.556 133.484 32.276 133.133 32.0742C132.781 31.8659 132.348 31.7617 131.834 31.7617C131.378 31.7617 130.981 31.8398 130.643 31.9961C130.311 32.1523 130.027 32.3639 129.793 32.6309C129.559 32.8913 129.367 33.1908 129.217 33.5293C129.074 33.8613 128.966 34.2064 128.895 34.5645V36.918C128.999 37.3737 129.168 37.8132 129.402 38.2363C129.643 38.653 129.962 38.9948 130.359 39.2617C130.763 39.5286 131.261 39.6621 131.854 39.6621C132.342 39.6621 132.758 39.5645 133.104 39.3691C133.455 39.1673 133.738 38.8906 133.953 38.5391C134.174 38.1875 134.337 37.7806 134.441 37.3184C134.546 36.8561 134.598 36.3613 134.598 35.834ZM144.852 38.1973C144.852 37.9368 144.793 37.696 144.676 37.4746C144.565 37.2467 144.334 37.0417 143.982 36.8594C143.637 36.6706 143.117 36.5078 142.42 36.3711C141.834 36.2474 141.303 36.1009 140.828 35.9316C140.359 35.7624 139.959 35.5573 139.627 35.3164C139.301 35.0755 139.051 34.7923 138.875 34.4668C138.699 34.1413 138.611 33.7604 138.611 33.3242C138.611 32.9076 138.702 32.5137 138.885 32.1426C139.074 31.7715 139.337 31.4427 139.676 31.1562C140.021 30.8698 140.434 30.6452 140.916 30.4824C141.398 30.3197 141.935 30.2383 142.527 30.2383C143.374 30.2383 144.096 30.388 144.695 30.6875C145.294 30.987 145.753 31.3874 146.072 31.8887C146.391 32.3835 146.551 32.9336 146.551 33.5391H144.744C144.744 33.2461 144.656 32.9629 144.48 32.6895C144.311 32.4095 144.061 32.1784 143.729 31.9961C143.403 31.8138 143.003 31.7227 142.527 31.7227C142.026 31.7227 141.619 31.8008 141.307 31.957C141.001 32.1068 140.776 32.2988 140.633 32.5332C140.496 32.7676 140.428 33.015 140.428 33.2754C140.428 33.4707 140.46 33.6465 140.525 33.8027C140.597 33.9525 140.721 34.0924 140.896 34.2227C141.072 34.3464 141.32 34.4635 141.639 34.5742C141.958 34.6849 142.365 34.7956 142.859 34.9062C143.725 35.1016 144.438 35.3359 144.998 35.6094C145.558 35.8828 145.975 36.2181 146.248 36.6152C146.521 37.0124 146.658 37.4941 146.658 38.0605C146.658 38.5228 146.561 38.946 146.365 39.3301C146.176 39.7142 145.9 40.0462 145.535 40.3262C145.177 40.5996 144.747 40.8145 144.246 40.9707C143.751 41.1204 143.195 41.1953 142.576 41.1953C141.645 41.1953 140.857 41.0293 140.213 40.6973C139.568 40.3652 139.08 39.9355 138.748 39.4082C138.416 38.8809 138.25 38.3242 138.25 37.7383H140.066C140.092 38.2331 140.236 38.627 140.496 38.9199C140.757 39.2064 141.076 39.4115 141.453 39.5352C141.831 39.6523 142.205 39.7109 142.576 39.7109C143.071 39.7109 143.484 39.6458 143.816 39.5156C144.155 39.3854 144.412 39.2064 144.588 38.9785C144.764 38.7507 144.852 38.4902 144.852 38.1973ZM150.994 30.4336V41H149.178V30.4336H150.994ZM149.041 27.6309C149.041 27.3379 149.129 27.0905 149.305 26.8887C149.487 26.6868 149.754 26.5859 150.105 26.5859C150.451 26.5859 150.714 26.6868 150.896 26.8887C151.085 27.0905 151.18 27.3379 151.18 27.6309C151.18 27.9108 151.085 28.1517 150.896 28.3535C150.714 28.5488 150.451 28.6465 150.105 28.6465C149.754 28.6465 149.487 28.5488 149.305 28.3535C149.129 28.1517 149.041 27.9108 149.041 27.6309ZM158.318 30.4336V31.8203H152.605V30.4336H158.318ZM154.539 27.8652H156.346V38.3828C156.346 38.7409 156.401 39.0111 156.512 39.1934C156.622 39.3757 156.766 39.4961 156.941 39.5547C157.117 39.6133 157.306 39.6426 157.508 39.6426C157.658 39.6426 157.814 39.6296 157.977 39.6035C158.146 39.571 158.273 39.5449 158.357 39.5254L158.367 41C158.224 41.0456 158.035 41.0879 157.801 41.127C157.573 41.1725 157.296 41.1953 156.971 41.1953C156.528 41.1953 156.121 41.1074 155.75 40.9316C155.379 40.7559 155.083 40.4629 154.861 40.0527C154.646 39.6361 154.539 39.0762 154.539 38.373V27.8652ZM164.822 41.1953C164.087 41.1953 163.419 41.0716 162.82 40.8242C162.228 40.5703 161.717 40.2155 161.287 39.7598C160.864 39.304 160.538 38.7637 160.311 38.1387C160.083 37.5137 159.969 36.8301 159.969 36.0879V35.6777C159.969 34.8184 160.096 34.0534 160.35 33.3828C160.604 32.7057 160.949 32.1328 161.385 31.6641C161.821 31.1953 162.316 30.8405 162.869 30.5996C163.423 30.3587 163.995 30.2383 164.588 30.2383C165.343 30.2383 165.994 30.3685 166.541 30.6289C167.094 30.8893 167.547 31.2539 167.898 31.7227C168.25 32.1849 168.51 32.7318 168.68 33.3633C168.849 33.9883 168.934 34.6719 168.934 35.4141V36.2246H161.043V34.75H167.127V34.6133C167.101 34.1445 167.003 33.6888 166.834 33.2461C166.671 32.8034 166.411 32.4388 166.053 32.1523C165.695 31.8659 165.206 31.7227 164.588 31.7227C164.178 31.7227 163.8 31.8105 163.455 31.9863C163.11 32.1556 162.814 32.4095 162.566 32.748C162.319 33.0866 162.127 33.5 161.99 33.9883C161.854 34.4766 161.785 35.0397 161.785 35.6777V36.0879C161.785 36.5892 161.854 37.0612 161.99 37.5039C162.133 37.9401 162.339 38.3242 162.605 38.6562C162.879 38.9883 163.208 39.2487 163.592 39.4375C163.982 39.6263 164.425 39.7207 164.92 39.7207C165.558 39.7207 166.098 39.5905 166.541 39.3301C166.984 39.0697 167.371 38.7214 167.703 38.2852L168.797 39.1543C168.569 39.4993 168.279 39.8281 167.928 40.1406C167.576 40.4531 167.143 40.707 166.629 40.9023C166.121 41.0977 165.519 41.1953 164.822 41.1953ZM173.191 26.7812L173.064 36.9863H171.434L171.297 26.7812H173.191ZM171.238 40.0918C171.238 39.7988 171.326 39.5514 171.502 39.3496C171.684 39.1478 171.951 39.0469 172.303 39.0469C172.648 39.0469 172.911 39.1478 173.094 39.3496C173.283 39.5514 173.377 39.7988 173.377 40.0918C173.377 40.3717 173.283 40.6126 173.094 40.8145C172.911 41.0163 172.648 41.1172 172.303 41.1172C171.951 41.1172 171.684 41.0163 171.502 40.8145C171.326 40.6126 171.238 40.3717 171.238 40.0918Z" fill="white"/>
</g>
<defs>
<filter id="filter0_d_1_7" x="0" y="9" width="199" height="59" filterUnits="userSpaceOnUse" color-interpolation-filters="sRGB">
<feFlood flood-opacity="0" result="BackgroundImageFix"/>
<feColorMatrix in="SourceAlpha" type="matrix" values="0 0 0 0 0 0 0 0 0 0 0 0 0 0 0 0 0 0 127 0" result="hardAlpha"/>
<feOffset dy="4"/>
<feGaussianBlur stdDeviation="2"/>
<feComposite in2="hardAlpha" operator="out"/>
<feColorMatrix type="matrix" values="0 0 0 0 0 0 0 0 0 0 0 0 0 0 0 0 0 0 0.25 0"/>
<feBlend mode="normal" in2="BackgroundImageFix" result="effect1_dropShadow_1_7"/>
<feBlend mode="normal" in="SourceGraphic" in2="effect1_dropShadow_1_7" result="shape"/>
</filter>
</defs>
</svg>